<svg xmlns="http://www.w3.org/2000/svg" viewBox="0 0 24 24" width="48" height="48" fill="none">
  <!-- Left Leg -->
  <rect x="4.5" y="18.5" width="2.5" height="4.5" rx="1.25" fill="#863bff" transform="rotate(20 5.75 20.75)" />
  <!-- Right Leg -->
  <rect x="17" y="18.5" width="2.5" height="4.5" rx="1.25" fill="#863bff" transform="rotate(-20 18.25 20.75)" />
  
  <!-- Left Bell -->
  <path d="M5.5 5.5 C4.2 6.8 3.5 8.5 3.3 9.2 L1.8 8.2 C2.2 6.9 3.4 4.7 5.3 3.4 C5.6 3.2 6.1 3.2 6.4 3.5 L6.8 4.7 C6.8 5 6.3 5.3 5.5 5.5 Z" fill="#863bff" />
  <!-- Right Bell -->
  <path d="M18.5 5.5 C19.8 6.8 20.5 8.5 20.7 9.2 L22.2 8.2 C21.8 6.9 20.6 4.7 18.7 3.4 C18.4 3.2 17.9 3.2 17.6 3.5 L17.2 4.7 C17.2 5 17.7 5.3 18.5 5.5 Z" fill="#863bff" />
  
  <!-- Top Hammer/Handle -->
  <path d="M10 2 C10 1.4 10.4 1 11 1 H13 C13.6 1 14 1.4 14 2 V3 H10 V2 Z" fill="#863bff" />
  
  <!-- Main Clock Outer Ring -->
  <circle cx="12" cy="13" r="7.5" stroke="#863bff" stroke-width="2.5" />
  <!-- Main Clock Inner Glow -->
  <circle cx="12" cy="13" r="5.5" fill="#863bff" fill-opacity="0.1" />

  <!-- Center Dot -->
  <circle cx="12" cy="13" r="1.2" fill="#863bff" />
  <!-- Minute Hand (Pointing to 12) -->
  <rect x="11.2" y="8" width="1.6" height="5" rx="0.8" fill="#863bff" />
  <!-- Hour Hand (Pointing to 3) -->
  <rect x="12" y="12.2" width="4" height="1.6" rx="0.8" fill="#863bff" />
</svg>